<svg width="79" height="77" viewBox="0 0 79 77" fill="none" xmlns="http://www.w3.org/2000/svg">
<path d="M12.4935 19.0877C0.493822 31.5792 -6.00614 47.0721 7.99341 60.0689C19.9939 71.2099 29.4938 78.5608 49.9937 73.5631C70.4936 68.5654 78.3491 58.2219 78.3491 42.5595C78.3491 27.5841 67.0914 24.1998 54.9935 11.5915C31.4939 -12.8996 22.2516 8.92957 12.4935 19.0877Z" fill="#907AFF"/>
<path d="M72.0001 27.5001C72.0001 58.5001 61.0002 64 50.0002 69.564C39.0002 75.1281 19.5002 82.4999 11.5002 68.9999C3.72019 55.8712 12.4751 51.5782 9.00017 40.0001C4.50015 25.0065 10.6705 6.2434 25.5002 8.50003C48.5002 11.9999 72.0001 2.32133 72.0001 27.5001Z" fill="#907AFF"/>
</svg>
